<svg width="120" height="42" viewBox="0 0 120 42" fill="none" xmlns="http://www.w3.org/2000/svg">
<path d="M18.72 24.26C18.49 24.57 18.14 24.8 17.69 24.92C15.19 25.64 12.62 26.04 10.04 26.12H9.89C9.31385 26.1515 8.74277 25.9976 8.26047 25.6809C7.77817 25.3642 7.41002 24.9012 7.21 24.36C6.45 22.58 5.64 20.66 4.79 18.76C4.74 18.66 4.59 18.47 4.45 18.31L4.31 18.16C4.24 18.06 4.14 17.97 4.04 17.86C3.83 17.65 3.58 17.4 3.37 17.07C2.68 16 2.97 14.75 4.06 14.03C4.39 13.81 4.78 13.63 5.17 13.54C6.54 13.18 7.9 12.84 9.21 12.54L9.09 12.31C8.83 11.86 8.66 11.51 8.5 11.24C8.3 10.87 8.16 10.59 7.91 10.17C7.44 9.33001 6.71 8.05001 6.84 6.56001C6.84 6.48001 7 4.93001 8.09 4.56001C8.29 4.49001 8.5 4.46001 8.71 4.46001C9.48 4.46001 10.15 4.94001 10.55 5.79001C10.91 6.56001 11.38 7.53001 11.83 8.21001C12.43 9.16001 13.33 9.99001 14.73 10.91L16.44 12.04L18.19 13.18C18.45 13.35 18.63 13.62 18.75 13.9C18.83 13.72 19.01 13.6 19.23 13.6H20.43V24.76H19.23C18.94 24.76 18.72 24.56 18.72 24.29V24.26V24.26ZM17.36 23.78C17.73 23.68 17.86 23.52 17.86 23.11C17.84 21.79 17.85 20.47 17.85 19.15C17.85 17.82 17.87 16.5 17.85 15.18C17.84 14.96 17.69 14.28 17.53 14.18C16.16 13.25 15.43 12.8 14.07 11.9C12.7873 11.1192 11.6806 10.0806 10.82 8.85001C10.35 8.11001 9.85 7.09001 9.47 6.29001C9.32 5.97001 8.98 5.47001 8.48 5.68001C8.25 5.73001 8.06 6.32001 8.03 6.66001C7.93 7.73001 8.43 8.66001 8.95 9.60001C9.38 10.35 9.55 10.7 10.13 11.75C10.72 12.79 10.61 13.41 9.49 13.68C8.15 14 6.81 14.34 5.48 14.68C5.21 14.75 4.94 14.86 4.72 15.01C4.19 15.37 4.03 15.91 4.38 16.45C4.6 16.8 4.95 17.07 5.23 17.4C5.47 17.68 5.73 17.96 5.88 18.29C6.70272 20.153 7.50942 22.0231 8.3 23.9C8.62 24.64 9.13 24.96 9.98 24.93C12.5 24.84 14.94 24.46 17.35 23.77L17.36 23.78ZM21.5 13.6H22.06C22.35 13.6 22.58 13.83 22.58 14.11V24.27C22.58 24.55 22.35 24.77 22.06 24.77H21.5V13.6ZM28.2 4.20001H31.58V17.6L36.8 11.99H41.15L35.34 18.13L41.51 25.53H37.03L31.64 18.61H31.58V25.53H28.2V4.20001ZM50.75 23.66H50.67C50.2278 24.39 49.5811 24.9741 48.81 25.34C48.06 25.69 47.23 25.86 46.33 25.86C45.7146 25.8619 45.102 25.7778 44.51 25.61C43.9422 25.4531 43.407 25.1957 42.93 24.85C42.4408 24.509 42.0439 24.0517 41.7751 23.5194C41.5063 22.987 41.374 22.3962 41.39 21.8C41.3653 21.1948 41.4837 20.5923 41.7357 20.0415C41.9876 19.4907 42.366 19.0071 42.84 18.63C43.28 18.28 43.8 18 44.38 17.8C44.96 17.59 45.57 17.43 46.2 17.33C46.83 17.23 47.46 17.16 48.1 17.13C48.74 17.11 49.34 17.09 49.9 17.09H50.75V16.72C50.75 15.88 50.46 15.24 49.88 14.82C49.2233 14.3767 48.4416 14.1558 47.65 14.19C46.3121 14.1787 45.0205 14.6796 44.04 15.59L42.26 13.82C42.9927 13.0589 43.8984 12.486 44.9 12.15C46.69 11.553 48.6151 11.4905 50.44 11.97C51.1 12.19 51.64 12.47 52.08 12.8C52.51 13.14 52.85 13.53 53.08 13.97C53.32 14.42 53.48 14.87 53.58 15.31C53.69 15.77 53.75 16.21 53.78 16.63L53.8 17.74V25.53H50.75V23.66V23.66ZM50.55 19.46H49.85C49.38 19.46 48.85 19.48 48.27 19.52C47.69 19.55 47.14 19.64 46.62 19.78C46.1 19.93 45.67 20.13 45.31 20.41C44.95 20.68 44.77 21.06 44.77 21.55C44.77 21.87 44.84 22.14 44.99 22.35C45.13 22.57 45.31 22.75 45.54 22.9C45.76 23.05 46.01 23.16 46.3 23.23C46.58 23.29 46.86 23.33 47.14 23.33C48.31 23.33 49.17 23.05 49.72 22.49C50.28 21.94 50.56 21.19 50.56 20.22V19.46H50.55ZM55.71 18.76C55.6717 17.328 56.0847 15.9202 56.8904 14.7358C57.6962 13.5514 58.854 12.6503 60.2 12.16C61.1 11.82 62.05 11.65 63.07 11.65C64.08 11.65 65.04 11.82 65.95 12.15C67.296 12.6403 68.4538 13.5414 69.2596 14.7258C70.0653 15.9102 70.4783 17.318 70.44 18.75C70.43 19.83 70.24 20.8 69.85 21.67C69.4829 22.5166 68.9481 23.2801 68.2778 23.9143C67.6075 24.5485 66.8156 25.0403 65.95 25.36C65.05 25.69 64.08 25.86 63.07 25.86C62.0877 25.8687 61.1119 25.6993 60.19 25.36C58.844 24.8697 57.6862 23.9686 56.8805 22.7842C56.0747 21.5998 55.6617 20.192 55.7 18.76H55.71ZM59.09 18.76C59.09 19.28 59.18 19.79 59.36 20.28C59.6298 21.0396 60.1331 21.6944 60.7977 22.1507C61.4623 22.6069 62.2542 22.8412 63.06 22.82C63.6095 22.8304 64.1551 22.7254 64.6615 22.5118C65.1679 22.2982 65.6239 21.9808 66 21.58C66.35 21.2 66.6 20.77 66.79 20.28C67.0525 19.5489 67.1168 18.7612 66.9763 17.9972C66.8358 17.2331 66.4955 16.5199 65.99 15.93C65.6173 15.533 65.1662 15.2178 64.6653 15.0043C64.1643 14.7909 63.6245 14.6838 63.08 14.69C62.5338 14.6824 61.9921 14.7888 61.4893 15.0023C60.9866 15.2158 60.5338 15.5318 60.16 15.93C59.81 16.31 59.55 16.74 59.36 17.23C59.19 17.73 59.1 18.23 59.1 18.76H59.09ZM83.25 23.49H83.2C82.7472 24.2869 82.0542 24.9203 81.22 25.3C80.3775 25.6778 79.4633 25.8688 78.54 25.86C77.173 25.9154 75.8253 25.5236 74.701 24.7441C73.5768 23.9645 72.7374 22.8396 72.31 21.54C71.6871 19.7304 71.6976 17.7628 72.34 15.96C72.66 15.1 73.1 14.35 73.68 13.71C74.2724 13.0474 75.0006 12.5204 75.8152 12.1649C76.6298 11.8094 77.5114 11.6338 78.4 11.65C79.8408 11.6026 81.248 12.0907 82.35 13.02C82.61 13.25 82.83 13.48 83 13.71H83.08V4.20001H86.47V25.53H83.25V23.49V23.49ZM75.25 18.76C75.25 19.28 75.33 19.79 75.51 20.28C75.7798 21.0396 76.2831 21.6944 76.9477 22.1507C77.6123 22.6069 78.4042 22.8412 79.21 22.82C79.7578 22.829 80.3015 22.7233 80.8061 22.5098C81.3107 22.2962 81.765 21.9795 82.14 21.58C82.49 21.2 82.74 20.77 82.93 20.28C83.1925 19.5489 83.2568 18.7612 83.1163 17.9972C82.9758 17.2331 82.6355 16.5199 82.13 15.93C81.7573 15.533 81.3062 15.2178 80.8053 15.0043C80.3043 14.7909 79.7645 14.6838 79.22 14.69C78.6738 14.6824 78.1321 14.7888 77.6293 15.0023C77.1266 15.2158 76.6738 15.5318 76.3 15.93C75.95 16.31 75.69 16.74 75.5 17.23C75.33 17.73 75.24 18.23 75.24 18.76H75.25ZM89.33 11.99H92.72V25.53H89.33V11.99V11.99ZM88.85 7.39001C88.8565 7.11511 88.9173 6.84421 89.0292 6.59299C89.141 6.34177 89.3015 6.11521 89.5015 5.92643C89.7014 5.73765 89.9368 5.59039 90.194 5.49316C90.4512 5.39594 90.7252 5.35068 91 5.36001C91.63 5.36001 92.15 5.55001 92.57 5.93001C93 6.32001 93.21 6.80001 93.21 7.39001C93.21 7.97001 93 8.45001 92.57 8.84001C92.15 9.23001 91.63 9.42001 91.01 9.42001C90.7352 9.42934 90.4612 9.38409 90.204 9.28686C89.9468 9.18964 89.7114 9.04237 89.5115 8.85359C89.3115 8.66481 89.151 8.43826 89.0392 8.18704C88.9273 7.93582 88.8665 7.66492 88.86 7.39001H88.85ZM95.41 11.99H98.63V14.1H98.69C98.99 13.46 99.47 12.9 100.14 12.4C100.934 11.8624 101.882 11.5991 102.84 11.65C104.96 11.65 106.37 12.48 107.06 14.15C107.56 13.29 108.16 12.65 108.9 12.25C109.63 11.85 110.5 11.65 111.52 11.65C112.42 11.65 113.18 11.8 113.8 12.1C114.398 12.3822 114.917 12.8082 115.31 13.34C115.7 13.87 115.98 14.48 116.15 15.19C116.32 15.89 116.4 16.65 116.4 17.46V25.53H113.02V17.85C113.02 17.44 112.98 17.04 112.9 16.65C112.83 16.27 112.7 15.93 112.5 15.64C112.315 15.3454 112.057 15.1042 111.75 14.94C111.36 14.7562 110.931 14.6704 110.5 14.69C110.065 14.6715 109.633 14.7615 109.242 14.9518C108.851 15.142 108.514 15.4267 108.26 15.78C108.03 16.11 107.86 16.48 107.76 16.91C107.66 17.33 107.6 17.76 107.6 18.19V25.53H104.21V17.46C104.25 16.7478 104.064 16.0411 103.68 15.44C103.32 14.94 102.73 14.69 101.9 14.69C101.34 14.69 100.86 14.79 100.48 14.98C100.09 15.16 99.78 15.42 99.52 15.74C99.26 16.06 99.08 16.42 98.97 16.84C98.85 17.25 98.8 17.68 98.8 18.14V25.53H95.4V11.99H95.41Z" fill="white"/>
<path d="M63.308 38.232V39H57.368V30.6H63.128V31.368H58.256V34.356H62.6V35.112H58.256V38.232H63.308ZM68.4313 32.64C69.2233 32.64 69.8513 32.872 70.3153 33.336C70.7873 33.792 71.0233 34.46 71.0233 35.34V39H70.1713V35.424C70.1713 34.768 70.0073 34.268 69.6793 33.924C69.3513 33.58 68.8833 33.408 68.2753 33.408C67.5953 33.408 67.0553 33.612 66.6553 34.02C66.2633 34.42 66.0673 34.976 66.0673 35.688V39H65.2153V32.688H66.0313V33.852C66.2633 33.468 66.5833 33.172 66.9913 32.964C67.4073 32.748 67.8873 32.64 68.4313 32.64ZM76.6604 38.616C76.5004 38.76 76.3004 38.872 76.0604 38.952C75.8284 39.024 75.5844 39.06 75.3284 39.06C74.7364 39.06 74.2804 38.9 73.9604 38.58C73.6404 38.26 73.4804 37.808 73.4804 37.224V33.408H72.3524V32.688H73.4804V31.308H74.3324V32.688H76.2524V33.408H74.3324V37.176C74.3324 37.552 74.4244 37.84 74.6084 38.04C74.8004 38.232 75.0724 38.328 75.4244 38.328C75.6004 38.328 75.7684 38.3 75.9284 38.244C76.0964 38.188 76.2404 38.108 76.3604 38.004L76.6604 38.616ZM83.4848 36.108H78.2048C78.2528 36.764 78.5048 37.296 78.9608 37.704C79.4168 38.104 79.9928 38.304 80.6888 38.304C81.0808 38.304 81.4408 38.236 81.7688 38.1C82.0968 37.956 82.3808 37.748 82.6208 37.476L83.1008 38.028C82.8208 38.364 82.4688 38.62 82.0448 38.796C81.6288 38.972 81.1688 39.06 80.6648 39.06C80.0168 39.06 79.4408 38.924 78.9368 38.652C78.4408 38.372 78.0528 37.988 77.7728 37.5C77.4928 37.012 77.3528 36.46 77.3528 35.844C77.3528 35.228 77.4848 34.676 77.7488 34.188C78.0208 33.7 78.3888 33.32 78.8528 33.048C79.3248 32.776 79.8528 32.64 80.4368 32.64C81.0208 32.64 81.5448 32.776 82.0088 33.048C82.4728 33.32 82.8368 33.7 83.1008 34.188C83.3648 34.668 83.4968 35.22 83.4968 35.844L83.4848 36.108ZM80.4368 33.372C79.8288 33.372 79.3168 33.568 78.9008 33.96C78.4928 34.344 78.2608 34.848 78.2048 35.472H82.6808C82.6248 34.848 82.3888 34.344 81.9728 33.96C81.5648 33.568 81.0528 33.372 80.4368 33.372ZM86.047 33.924C86.247 33.5 86.543 33.18 86.935 32.964C87.335 32.748 87.827 32.64 88.411 32.64V33.468L88.207 33.456C87.543 33.456 87.023 33.66 86.647 34.068C86.271 34.476 86.083 35.048 86.083 35.784V39H85.231V32.688H86.047V33.924ZM93.2056 32.64C93.7976 32.64 94.3336 32.776 94.8136 33.048C95.2936 33.312 95.6696 33.688 95.9416 34.176C96.2136 34.664 96.3496 35.22 96.3496 35.844C96.3496 36.476 96.2136 37.036 95.9416 37.524C95.6696 38.012 95.2936 38.392 94.8136 38.664C94.3416 38.928 93.8056 39.06 93.2056 39.06C92.6936 39.06 92.2296 38.956 91.8136 38.748C91.4056 38.532 91.0696 38.22 90.8056 37.812V41.328H89.9536V32.688H90.7696V33.936C91.0256 33.52 91.3616 33.2 91.7776 32.976C92.2016 32.752 92.6776 32.64 93.2056 32.64ZM93.1456 38.304C93.5856 38.304 93.9856 38.204 94.3456 38.004C94.7056 37.796 94.9856 37.504 95.1856 37.128C95.3936 36.752 95.4976 36.324 95.4976 35.844C95.4976 35.364 95.3936 34.94 95.1856 34.572C94.9856 34.196 94.7056 33.904 94.3456 33.696C93.9856 33.488 93.5856 33.384 93.1456 33.384C92.6976 33.384 92.2936 33.488 91.9336 33.696C91.5816 33.904 91.3016 34.196 91.0936 34.572C90.8936 34.94 90.7936 35.364 90.7936 35.844C90.7936 36.324 90.8936 36.752 91.0936 37.128C91.3016 37.504 91.5816 37.796 91.9336 38.004C92.2936 38.204 92.6976 38.304 93.1456 38.304ZM98.9024 33.924C99.1024 33.5 99.3984 33.18 99.7904 32.964C100.19 32.748 100.682 32.64 101.266 32.64V33.468L101.062 33.456C100.398 33.456 99.8784 33.66 99.5024 34.068C99.1264 34.476 98.9384 35.048 98.9384 35.784V39H98.0864V32.688H98.9024V33.924ZM102.809 32.688H103.661V39H102.809V32.688ZM103.241 31.308C103.065 31.308 102.917 31.248 102.797 31.128C102.677 31.008 102.617 30.864 102.617 30.696C102.617 30.536 102.677 30.396 102.797 30.276C102.917 30.156 103.065 30.096 103.241 30.096C103.417 30.096 103.565 30.156 103.685 30.276C103.805 30.388 103.865 30.524 103.865 30.684C103.865 30.86 103.805 31.008 103.685 31.128C103.565 31.248 103.417 31.308 103.241 31.308ZM107.724 39.06C107.212 39.06 106.72 38.988 106.248 38.844C105.784 38.692 105.42 38.504 105.156 38.28L105.54 37.608C105.804 37.816 106.136 37.988 106.536 38.124C106.936 38.252 107.352 38.316 107.784 38.316C108.36 38.316 108.784 38.228 109.056 38.052C109.336 37.868 109.476 37.612 109.476 37.284C109.476 37.052 109.4 36.872 109.248 36.744C109.096 36.608 108.904 36.508 108.672 36.444C108.44 36.372 108.132 36.304 107.748 36.24C107.236 36.144 106.824 36.048 106.512 35.952C106.2 35.848 105.932 35.676 105.708 35.436C105.492 35.196 105.384 34.864 105.384 34.44C105.384 33.912 105.604 33.48 106.044 33.144C106.484 32.808 107.096 32.64 107.88 32.64C108.288 32.64 108.696 32.696 109.104 32.808C109.512 32.912 109.848 33.052 110.112 33.228L109.74 33.912C109.22 33.552 108.6 33.372 107.88 33.372C107.336 33.372 106.924 33.468 106.644 33.66C106.372 33.852 106.236 34.104 106.236 34.416C106.236 34.656 106.312 34.848 106.464 34.992C106.624 35.136 106.82 35.244 107.052 35.316C107.284 35.38 107.604 35.448 108.012 35.52C108.516 35.616 108.92 35.712 109.224 35.808C109.528 35.904 109.788 36.068 110.004 36.3C110.22 36.532 110.328 36.852 110.328 37.26C110.328 37.812 110.096 38.252 109.632 38.58C109.176 38.9 108.54 39.06 107.724 39.06ZM117.399 36.108H112.119C112.167 36.764 112.419 37.296 112.875 37.704C113.331 38.104 113.907 38.304 114.603 38.304C114.995 38.304 115.355 38.236 115.683 38.1C116.011 37.956 116.295 37.748 116.535 37.476L117.015 38.028C116.735 38.364 116.383 38.62 115.959 38.796C115.543 38.972 115.083 39.06 114.579 39.06C113.931 39.06 113.355 38.924 112.851 38.652C112.355 38.372 111.967 37.988 111.687 37.5C111.407 37.012 111.267 36.46 111.267 35.844C111.267 35.228 111.399 34.676 111.663 34.188C111.935 33.7 112.303 33.32 112.767 33.048C113.239 32.776 113.767 32.64 114.351 32.64C114.935 32.64 115.459 32.776 115.923 33.048C116.387 33.32 116.751 33.7 117.015 34.188C117.279 34.668 117.411 35.22 117.411 35.844L117.399 36.108ZM114.351 33.372C113.743 33.372 113.231 33.568 112.815 33.96C112.407 34.344 112.175 34.848 112.119 35.472H116.595C116.539 34.848 116.303 34.344 115.887 33.96C115.479 33.568 114.967 33.372 114.351 33.372Z" fill="white"/>
</svg>
